<?xml version="1.0" standalone="no"?>
<!DOCTYPE svg PUBLIC "-//W3C//DTD SVG 20010904//EN"
 "http://www.w3.org/TR/2001/REC-SVG-20010904/DTD/svg10.dtd">
<svg version="1.0" xmlns="http://www.w3.org/2000/svg"
 width="57.000000pt" height="56.000000pt" viewBox="0 0 57.000000 56.000000"
 preserveAspectRatio="xMidYMid meet">

<g transform="translate(0.000000,56.000000) scale(0.100000,-0.100000)"
fill="#000000" stroke="none">
<path d="M161 513 c-87 -43 -139 -131 -139 -233 0 -66 12 -104 54 -163 93
-131 325 -131 418 0 42 59 54 97 54 163 0 66 -12 104 -54 163 -68 95 -219 128
-333 70z m211 -205 l48 -138 -30 0 c-24 0 -32 6 -43 33 -14 31 -15 32 -66 28
-48 -3 -54 -6 -63 -32 -8 -23 -16 -29 -38 -29 l-28 0 46 140 47 141 39 -3 40
-3 48 -137z"/>
<path d="M267 346 c-22 -66 -22 -66 18 -66 34 0 35 1 29 28 -4 15 -12 40 -19
57 l-11 30 -17 -49z"/>
</g>
</svg>
